<?xml version="1.0" standalone="no"?><!DOCTYPE svg PUBLIC "-//W3C//DTD SVG 1.1//EN" "http://www.w3.org/Graphics/SVG/1.1/DTD/svg11.dtd"><svg t="1747047497026" class="icon" viewBox="0 0 1024 1024" version="1.1" xmlns="http://www.w3.org/2000/svg" p-id="2297" xmlns:xlink="http://www.w3.org/1999/xlink" width="200" height="200"><path d="M814.933333 456.533333l59.733334 102.4c4.266667 8.533333 4.266667 21.333333-8.533334 29.866667-4.266667 0-8.533333 4.266667-8.533333 4.266667-8.533333 0-12.8-4.266667-17.066667-8.533334l-55.466666-98.133333c-29.866667 17.066667-64 34.133333-98.133334 42.666667l29.866667 106.666666c4.266667 12.8-4.266667 21.333333-17.066667 25.6h-4.266666c-8.533333 0-17.066667-4.266667-21.333334-17.066666L640 537.6c-34.133333 8.533333-68.266667 12.8-106.666667 12.8v106.666667c0 12.8-8.533333 21.333333-21.333333 21.333333s-21.333333-8.533333-21.333333-21.333333V554.666667c-38.4 0-72.533333-4.266667-106.666667-12.8l-29.866667 106.666666c-4.266667 8.533333-12.8 17.066667-21.333333 17.066667h-4.266667c-12.8-4.266667-17.066667-12.8-17.066666-25.6l29.866666-115.2c-34.133333-12.8-68.266667-25.6-98.133333-42.666667L187.733333 580.266667c-4.266667 8.533333-12.8 8.533333-17.066666 8.533333s-8.533333 0-8.533334-4.266667c-8.533333-4.266667-12.8-17.066667-8.533333-29.866666L213.333333 452.266667c-46.933333-34.133333-89.6-76.8-123.733333-128-8.533333-4.266667-4.266667-17.066667 4.266667-21.333334 12.8-8.533333 25.6-4.266667 29.866666 4.266667C204.8 435.2 354.133333 512 512 512s307.2-76.8 388.266667-204.8c8.533333-8.533333 21.333333-12.8 29.866666-8.533333 8.533333 4.266667 12.8 21.333333 8.533334 29.866666-34.133333 51.2-76.8 93.866667-123.733334 128z" fill="" p-id="2298"></path></svg>